<?xml version="1.0" encoding="UTF-8" standalone="no"?>
<!DOCTYPE svg PUBLIC "-//W3C//DTD SVG 1.1//EN" "http://www.w3.org/Graphics/SVG/1.1/DTD/svg11.dtd">
<svg width="100%" height="100%" viewBox="0 0 1500 1500" version="1.1" xmlns="http://www.w3.org/2000/svg" xmlns:xlink="http://www.w3.org/1999/xlink" xml:space="preserve" xmlns:serif="http://www.serif.com/" style="fill-rule:evenodd;clip-rule:evenodd;stroke-linecap:round;stroke-linejoin:round;">
    <g transform="matrix(1.1605,0,0,1.13977,-163.481,-184.114)">
        <circle cx="787.146" cy="807.811" r="646.275" style="fill:rgb(0,181,212);"/>
        <path d="M787.146,161.536C1143.84,161.536 1433.42,451.122 1433.42,807.811C1433.42,1164.5 1143.84,1454.09 787.146,1454.09C430.457,1454.09 140.871,1164.5 140.871,807.811C140.871,451.122 430.457,161.536 787.146,161.536ZM787.146,227.339C466.445,227.339 205.499,487.109 205.499,807.811C205.499,1128.51 466.445,1388.28 787.146,1388.28C1107.85,1388.28 1368.79,1128.51 1368.79,807.811C1368.79,487.109 1107.85,227.339 787.146,227.339Z"/>
    </g>
    <g transform="matrix(37.8807,0,0,37.8807,295.432,295.432)">
        <path d="M17.596,12.768C17.971,13.143 18.48,13.354 19.011,13.354C20.108,13.354 21.011,12.451 21.011,11.354C21.011,10.823 20.8,10.314 20.425,9.939L18.657,8.172C19.032,8.547 19.541,8.758 20.071,8.758C21.168,8.758 22.071,7.855 22.071,6.757C22.071,6.227 21.86,5.718 21.485,5.343L18.657,2.515C18.282,2.14 17.773,1.929 17.243,1.929C16.145,1.929 15.242,2.832 15.242,3.929C15.242,4.459 15.453,4.968 15.828,5.343L14.061,3.575C13.686,3.2 13.177,2.989 12.647,2.989C11.549,2.989 10.646,3.892 10.646,4.989C10.646,5.52 10.857,6.029 11.232,6.404L17.596,12.768Z" style="fill:none;fill-rule:nonzero;stroke:black;stroke-width:2px;"/>
    </g>
    <g transform="matrix(37.8807,0,0,37.8807,295.432,295.432)">
        <path d="M2.5,21.5L3.9,20.1" style="fill:none;fill-rule:nonzero;stroke:black;stroke-width:2px;"/>
    </g>
    <g transform="matrix(37.8807,0,0,37.8807,295.432,295.432)">
        <path d="M20.1,3.9L21.5,2.5" style="fill:none;fill-rule:nonzero;stroke:black;stroke-width:2px;"/>
    </g>
    <g transform="matrix(37.8807,0,0,37.8807,295.432,295.432)">
        <path d="M5.343,21.485C5.718,21.86 6.227,22.071 6.758,22.071C7.855,22.071 8.758,21.168 8.758,20.071C8.758,19.541 8.547,19.032 8.172,18.657L9.939,20.425C10.314,20.8 10.823,21.011 11.354,21.011C12.451,21.011 13.354,20.108 13.354,19.011C13.354,18.48 13.143,17.971 12.768,17.596L6.404,11.232C6.029,10.857 5.52,10.646 4.989,10.646C3.892,10.646 2.989,11.549 2.989,12.646C2.989,13.177 3.2,13.686 3.575,14.061L5.343,15.828C4.968,15.453 4.459,15.242 3.929,15.242C2.832,15.242 1.929,16.145 1.929,17.243C1.929,17.773 2.14,18.282 2.515,18.657L5.343,21.485Z" style="fill:none;fill-rule:nonzero;stroke:black;stroke-width:2px;"/>
    </g>
    <g transform="matrix(37.8807,0,0,37.8807,295.432,295.432)">
        <path d="M9.6,14.4L14.4,9.6" style="fill:none;fill-rule:nonzero;stroke:black;stroke-width:2px;"/>
    </g>
</svg>
